<?xml version="1.0" encoding="utf-8"?>
<!-- Generator: Adobe Illustrator 26.0.3, SVG Export Plug-In . SVG Version: 6.00 Build 0)  -->
<svg version="1.1" id="Sa_Marchesa" xmlns="http://www.w3.org/2000/svg" xmlns:xlink="http://www.w3.org/1999/xlink" x="0px"
	 y="0px" viewBox="0 0 373.73 138.64" style="enable-background:new 0 0 373.73 138.64;" xml:space="preserve">
<style type="text/css">
	.st0{fill:#DEDEDE;}
	.st1{fill:#B3103A;}
	.st2{fill:#C0AD22;}
	.st3{fill:#008083;}
	.st4{fill:#231F20;}
	.st5{fill:#611D4A;}
	.st6{fill:#666202;}
</style>
<path id="S" class="st0" d="M33,54.07c0,4.34-1.13,7.56-3.39,9.63c-2.67,2.39-7.13,3.59-13.39,3.58c-6,0-10.35-1.41-13.11-4.23
	C1.05,61.02-0.07,58.22,0,55.33v-15.1h13.14v15.19c0,0.66,0.32,1.27,0.86,1.65c0.58,0.42,1.28,0.63,2,0.6
	c0.71,0.05,1.42-0.15,2-0.56c0.46-0.44,0.71-1.06,0.66-1.7v-7.84c0.06-1.55-0.4-3.08-1.3-4.34c-2.21-2.26-4.56-4.75-7.08-7.46
	c-4.15-4.4-6.48-6.91-7-7.54C1.1,25.38,0,22.74,0,20.28v-7.44C0,8.62,1.2,5.5,3.59,3.49C6.36,1.17,10.76,0.01,16.81,0
	c5.22,0,9.12,1.16,11.71,3.49c2.25,2.11,3.46,5.1,3.31,8.18v11.4H18.58V10.85c0.05-0.55-0.17-1.09-0.58-1.46
	c-0.44-0.36-1-0.55-1.57-0.53c-0.61-0.05-1.22,0.12-1.72,0.48c-0.41,0.39-0.62,0.95-0.57,1.52v6.17c0.1,2.38,1.11,4.63,2.83,6.28
	c2.67,2.7,5.16,5.25,7.47,7.64c2.09,2.08,4.05,4.29,5.86,6.61c1.74,2.35,2.68,5.2,2.7,8.12V54.07z"/>
<path id="a" class="st0" d="M67,66.54H55.38v-2.09c-0.57,1.15-1.62,1.99-2.86,2.31c-1.8,0.4-3.65,0.58-5.49,0.52
	c-3.87,0-6.62-0.69-8.25-2.07c-1.62-1.39-2.43-3.49-2.43-6.33V48.12c0-4.28,2.92-7.84,8.76-10.67c5.83-2.83,8.76-4.81,8.76-5.94
	v-7.85c0.06-0.71-0.13-1.42-0.55-2c-0.42-0.46-1.02-0.7-1.64-0.65c-0.59-0.01-1.16,0.23-1.56,0.66c-0.47,0.56-0.7,1.28-0.63,2v10.5
	H36.78V23.54c0-4,1.59-6.85,4.8-8.66c2.57-1.45,6.18-2.17,10.83-2.17s8.13,0.79,10.45,2.36c2.76,1.82,4.14,4.82,4.14,9L67,66.54z
	 M53.87,56.54V42.72c-1.28,0.23-2.47,0.78-3.47,1.61c-0.62,0.66-0.95,1.54-0.91,2.45v9.72c-0.05,0.67,0.16,1.33,0.59,1.84
	c0.45,0.43,1.06,0.65,1.68,0.61c0.57,0.02,1.12-0.2,1.51-0.61c0.44-0.51,0.65-1.17,0.6-1.84V56.54z"/>
<polygon id="M" class="st0" points="137.4,66.54 124.37,66.54 124.37,29.48 116.91,66.54 107.02,66.54 98.42,29.48 98.42,66.54 
	86.99,66.54 86.99,0.54 105.57,0.54 112.25,34.71 118.07,0.54 137.4,0.54 "/>
<path id="a-2" class="st0" d="M171.64,66.54H160v-2.09c-0.57,1.15-1.62,1.99-2.86,2.31c-1.8,0.4-3.64,0.58-5.48,0.52
	c-3.88,0-6.62-0.69-8.25-2.07c-1.63-1.38-2.41-3.49-2.41-6.33V48.12c0-4.28,2.92-7.84,8.76-10.67s8.76-4.81,8.76-5.94v-7.85
	c0.06-0.71-0.13-1.42-0.55-2c-0.42-0.46-1.02-0.7-1.64-0.65c-0.59-0.01-1.16,0.23-1.56,0.66c-0.47,0.56-0.7,1.28-0.63,2v10.5h-12.73
	V23.54c0-3.96,1.6-6.85,4.8-8.66c2.58-1.45,6.18-2.17,10.83-2.17s8.13,0.79,10.45,2.36c2.76,1.82,4.14,4.82,4.15,9V66.54z
	 M158.5,56.54V42.72c-1.29,0.23-2.49,0.78-3.5,1.61c-0.62,0.66-0.95,1.54-0.91,2.45v9.72c-0.05,0.67,0.16,1.33,0.59,1.84
	c0.45,0.43,1.07,0.65,1.69,0.61c0.56,0.02,1.11-0.2,1.5-0.61c0.45-0.5,0.67-1.17,0.63-1.84V56.54z"/>
<path id="r" class="st0" d="M205.81,35.23h-13.14V23.61c0-1.64-0.75-2.46-2.24-2.46c-0.62-0.04-1.22,0.16-1.69,0.56
	c-0.41,0.5-0.61,1.14-0.56,1.79v43h-13.13V13.03h13.13v1.83c0.97-0.73,2.07-1.25,3.25-1.54c1.58-0.43,3.22-0.63,4.86-0.61
	c2.47-0.1,4.89,0.69,6.83,2.21c1.69,1.29,2.69,3.3,2.69,5.43L205.81,35.23z"/>
<path id="c" class="st0" d="M239.18,56.46c0,4-1.51,6.91-4.53,8.66c-2.43,1.44-5.98,2.16-10.65,2.16s-8.33-0.78-11-2.35
	c-3.08-1.88-4.62-4.88-4.62-9V24.02c0-4,1.54-6.95,4.62-8.86c2.65-1.63,6.29-2.45,11-2.45s8,0.72,10.56,2.17
	c3.08,1.75,4.62,4.64,4.63,8.66v13.2h-13.14V23.67c0.06-0.71-0.14-1.43-0.57-2c-0.43-0.47-1.05-0.71-1.68-0.66
	c-0.6-0.01-1.18,0.23-1.59,0.66c-0.48,0.55-0.72,1.27-0.65,2v32.66c-0.05,0.71,0.15,1.42,0.56,2c0.41,0.49,1.04,0.76,1.68,0.71
	c0.64,0.05,1.26-0.21,1.68-0.7c0.41-0.58,0.61-1.29,0.57-2V43.47h13.13L239.18,56.46z"/>
<path id="h" class="st0" d="M272.76,66.54h-13.14v-43c0-1.63-0.74-2.45-2.24-2.45c-0.61-0.04-1.22,0.16-1.68,0.57
	c-0.41,0.5-0.62,1.14-0.56,1.78v43.1H242v-66h13.14V14.7c0.95-0.74,2.07-1.24,3.25-1.47c1.59-0.34,3.22-0.49,4.85-0.47
	c2.46-0.1,4.88,0.67,6.83,2.17c1.69,1.23,2.69,3.19,2.69,5.28V66.54z"/>
<path id="e" class="st0" d="M306.54,56.44c0,3.96-1.57,6.85-4.72,8.68c-2.52,1.44-6.1,2.16-10.75,2.16s-8.23-0.78-10.76-2.35
	c-3.02-1.88-4.53-4.88-4.53-9V24.02c0-4,1.48-6.95,4.43-8.86c2.58-1.63,6.2-2.45,10.86-2.45c4.66,0,8.24,0.72,10.75,2.17
	c3.14,1.75,4.71,4.64,4.72,8.66v20.35h-17.62v12.44c-0.05,0.71,0.15,1.42,0.56,2c0.9,0.93,2.38,0.95,3.31,0.05
	c0.02-0.02,0.03-0.03,0.05-0.05c0.41-0.58,0.61-1.29,0.56-2V45.6h13.14V56.44z M293.4,35.78V23.65c0.06-0.71-0.13-1.42-0.56-2
	c-0.43-0.46-1.05-0.7-1.68-0.65c-0.6-0.01-1.17,0.22-1.59,0.65c-0.48,0.55-0.71,1.27-0.65,2v12.13H293.4z"/>
<path id="s-2" class="st0" d="M340.12,55.97c0,4-1.55,7-4.62,8.86c-2.67,1.64-6.32,2.46-10.95,2.45c-4.53,0-8.06-0.72-10.57-2.16
	c-3.08-1.75-4.62-4.65-4.62-8.66V45.07h13.14v11.27c-0.04,0.71,0.16,1.42,0.57,2c0.39,0.48,0.99,0.74,1.6,0.7
	c0.61,0.05,1.2-0.22,1.57-0.71c0.39-0.59,0.57-1.29,0.53-2v-4.1c0-3.64-0.86-5.99-2.58-7.06c-2.38-1.25-4.61-2.44-6.69-3.58
	c-2.34-1.13-4.44-2.68-6.22-4.57c-1.17-1.7-1.73-3.74-1.6-5.79v-7.21c0-4,1.47-6.95,4.42-8.86c2.58-1.63,6.18-2.45,10.83-2.45
	s8,0.72,10.45,2.16c2.94,1.76,4.41,4.65,4.42,8.66v10.54h-12.92V23.66c0.03-0.7-0.19-1.38-0.63-1.92c-0.34-0.43-0.86-0.69-1.41-0.7
	c-0.57-0.01-1.12,0.23-1.51,0.66c-0.46,0.56-0.69,1.28-0.62,2v5c-0.07,2.05,0.96,3.99,2.71,5.07l5.09,2.73
	c3.7,1.95,5.99,3.37,6.87,4.24c1.89,1.93,2.89,4.56,2.74,7.26L340.12,55.97z"/>
<path id="a-3" class="st0" d="M373.73,66.54h-11.62v-2.09c-0.58,1.15-1.62,1.99-2.87,2.31c-1.79,0.4-3.63,0.58-5.47,0.52
	c-3.88,0-6.63-0.69-8.26-2.07c-1.62-1.39-2.43-3.49-2.43-6.33V48.12c0-4.28,2.92-7.84,8.76-10.67c5.84-2.83,8.76-4.81,8.75-5.94
	v-7.85c0.06-0.71-0.13-1.42-0.54-2c-0.42-0.45-1.03-0.69-1.65-0.65c-0.59-0.01-1.15,0.23-1.55,0.66c-0.47,0.56-0.7,1.28-0.63,2v10.5
	h-12.71V23.54c0-3.96,1.6-6.85,4.79-8.66c2.58-1.45,6.19-2.17,10.83-2.17s8.13,0.79,10.46,2.36c2.76,1.82,4.14,4.82,4.14,9V66.54z
	 M360.59,56.54V42.72c-1.27,0.23-2.46,0.78-3.46,1.61c-0.62,0.66-0.95,1.54-0.91,2.45v9.72c-0.05,0.67,0.16,1.33,0.59,1.84
	c0.45,0.43,1.07,0.65,1.69,0.61c0.56,0.02,1.11-0.2,1.5-0.61c0.43-0.51,0.64-1.17,0.59-1.84V56.54z"/>
<rect id="q-1" y="78.65" class="st1" width="59.95" height="59.95"/>
<rect id="q-2" x="62.88" y="78.65" class="st2" width="59.95" height="59.95"/>
<rect id="q-3" x="125.65" y="78.7" class="st3" width="59.95" height="59.95"/>
<rect id="q-4" x="188.59" y="78.64" class="st4" width="59.95" height="59.95"/>
<rect id="q-5" x="251.07" y="78.66" class="st5" width="59.95" height="59.95"/>
<rect id="q-6" x="313.76" y="78.66" class="st6" width="59.95" height="59.95"/>
</svg>
